# xmcd CD database file generated by OrangeCD 6.2
#
# Track frame offsets:
#	150
#	15426
#	33340
#	47637
#	62000
#	82371
#	97920
#	118865
#	130743
#	145634
#	157741
#	185647
#	204046
#
# Disc length: 2792 seconds
#
# Revision: 1
# Processed by: cddbd v1.5.2PL0 Copyright (c) Steve Scherf et al.
# Submitted via: OrangeCD 6.2
#
DISCID=a10ae60d
DTITLE=The Mother Truckers - Broke Not Broken
DYEAR=2006
DGENRE=Alternative
TTITLE0=No Mercy
TTITLE1=Nothing There
TTITLE2=Broke Not Broken
TTITLE3=Passing By Again
TTITLE4=Slipping Away
TTITLE5=God's Good Sunshine
TTITLE6=Northbound Trail
TTITLE7=Stronger
TTITLE8=Magic 8 Ball
TTITLE9=Different Eyes
TTITLE10=Love Me Like A Man
TTITLE11=Shadow
TTITLE12=Reprise
EXTD=
EXTT0=
EXTT1=
EXTT2=
EXTT3=
EXTT4=
EXTT5=
EXTT6=
EXTT7=
EXTT8=
EXTT9=
EXTT10=
EXTT11=
EXTT12=
PLAYORDER=
